<?xml version="1.0" encoding="utf-8"?>
<!-- Generator: Adobe Illustrator 19.0.0, SVG Export Plug-In . SVG Version: 6.00 Build 0)  -->
<svg version="1.1" id="Layer_1" xmlns="http://www.w3.org/2000/svg" xmlns:xlink="http://www.w3.org/1999/xlink" x="0px" y="0px"
	 viewBox="194 -104 1000 1000" style="enable-background:new 194 -104 1000 1000;" xml:space="preserve">
<style type="text/css">
	.st0{fill:#F3F3F3;}
</style>
<g>
	<g id="_x32_069a460dcf28295e231f3111e0426ac">
		<path class="st0" d="M1130.5,383.6c-12.6-38.9-32.9-74.3-60.5-105.2c-24.1-27-52.9-49.7-85.7-67.7l0.1-0.1L641.5,30.5
			c-0.3-0.1-0.6-0.3-0.8-0.5c-11.4-5.9-25.7-7.8-40.4-5.3c-14.7,2.5-28.1,9.2-37.7,18.9c-10.4,10.3-15.3,22.4-13.8,34.2
			c1.5,11,8.4,20.6,19.8,27c22.2,12,44.3,24.3,66.5,36.7c21.6,12,43.7,24.4,65.8,36.3l-370.8,63.9c-42.4,7.3-67.8,32.2-68,66.6
			c0,15,7.3,30.3,19.8,40.8c13.2,11.1,30.3,15.6,48.1,12.5l28.3-4.9c39-6.8,78.2-13.6,117.4-20.5l37.3-6.6L219.5,636.9l-1.2,1.2
			c-16.3,17.6-25.2,40-24.2,61.2c0.8,16.1,6.9,29.9,17.9,39.8c13.1,11.8,31.1,16.5,50.7,13.1c19.3-3.3,37.7-14,51.9-30.2l156-180.1
			c0.5,7.4,1.4,18.2,2.9,25.9c2.3,12.2,10.5,36.1,20.2,55c19.9,38.8,48.1,72.6,83.6,100.3c37,28.9,79.5,49.5,126.4,61.2
			c49.5,12.4,100.8,14.2,152.4,5.3l0.5-0.1c51.7-9.1,99.6-28.2,142.2-56.8c40.3-27.1,73.3-60.9,98.3-100.5
			c24.1-38.3,39.2-79.6,44.9-122.8c2.8-21.4,3.3-43,1.3-64.5C1141.3,424.4,1137.1,403.7,1130.5,383.6z M833.6,637.3
			C719.9,657,613.4,590.5,595.8,488.8s60.3-200.1,174-219.8c113.6-19.6,220,46.9,237.6,148.6C1025,519.2,947.2,617.7,833.6,637.3z
			 M917.5,416.5c6.9,30.1-0.3,60.3-18,84.9c-18,25-46.5,43.7-81.1,49.7c-34.6,6-67.7-2-93.1-19.5c-24.9-17.2-41.9-43.3-45.5-73.9
			c-3.4-29.8,6.5-58.3,24.8-80.4c18.1-21.8,44.9-37.8,76.1-43.2c31.2-5.4,61.7,0.7,86.2,15.1C891.8,363.8,910.7,387.3,917.5,416.5z"
			/>
	</g>
</g>
<g>
	<path class="st0" d="M970.6,97.9L867.7,32.6l-9.3,34l-6.5,23.7c-7.3,26.7,37.1,62.1,99.1,79.1c62,17,118.3,9.1,125.6-17.5
		c0.1-0.2,0-0.4,0.1-0.6l15.6-57.1L970.6,97.9z"/>
	<path class="st0" d="M802.7-27.9l36.2,25.3l5.4-6.4l15.1,2.8l1.5,2.8l-13.5-0.5l-3.3,5c0,0-44.9,51.9-48.7,82.2
		c0,0,14.9,15.5,35.6,9.8l26.6-78.6l1.8-6.6l28.2,1.3l-3.1,4.1l-21.5,1l8.3,5.8L974,85.3l121.8-3.8l83.4-6.4l-168.4-124L802.7-27.9z
		"/>
</g>
</svg>
