<?xml version="1.0" encoding="utf-8"?>
<!-- Generator: Adobe Illustrator 19.0.0, SVG Export Plug-In . SVG Version: 6.00 Build 0)  -->
<svg version="1.1" id="Layer_1" xmlns="http://www.w3.org/2000/svg" xmlns:xlink="http://www.w3.org/1999/xlink" x="0px" y="0px"
	 viewBox="-49 141 512 512" style="enable-background:new -49 141 512 512;" xml:space="preserve">
<style type="text/css">
	.st0{fill:#F3F3F3;}
</style>
<g>
	<g>
		<path class="st0" d="M323.3,191.8H-20.2c-15.9,0-28.8,12.9-28.8,28.8v206.1c0,15.9,12.9,28.8,28.8,28.8H2.1v76.7
			c0,4.9,2.9,9.3,7.5,11.2c1.5,0.6,3.1,0.9,4.6,0.9c3.1,0,6.2-1.2,8.5-3.5l85.3-85.3h17.1c6.7,0,12.1-5.4,12.1-12.1
			c0-6.7-5.4-12.1-12.1-12.1c0,0-22.7,0-22.9,0c-2.8,0.2-5.6,1.3-7.7,3.5L26.3,503c0,0,0-60.4-0.1-60.7c-0.5-6.2-5.7-11-12-11h-34.3
			c-2.6,0-4.7-2.1-4.7-4.7V220.6c0-2.6,2.1-4.7,4.7-4.7h343.5c2.6,0,4.7,2.1,4.7,4.7v79.1c0,6.7,5.4,12.1,12.1,12.1
			s12.1-5.4,12.1-12.1v-79.1C352.1,204.7,339.2,191.8,323.3,191.8z"/>
	</g>
</g>
<g>
	<g>
		<path class="st0" d="M434.2,339.5H193.8c-15.9,0-28.8,12.9-28.8,28.8v140.6c0,15.9,12.9,28.8,28.8,28.8h150.5l61,61
			c2.3,2.3,5.4,3.5,8.5,3.5c1.6,0,3.1-0.3,4.6-0.9c4.5-1.9,7.5-6.3,7.5-11.2v-52.4h8.3c15.9,0,28.8-12.9,28.8-28.8V368.3
			C463,352.4,450.1,339.5,434.2,339.5z M438.8,508.9c0,2.6-2.1,4.7-4.7,4.7h-20.4c-6.4,0-11.6,4.9-12,11.1c0,0.3-0.1,36.3-0.1,36.3
			l-43.9-43.9c0,0-0.1-0.1-0.1-0.1c-0.2-0.2-0.3-0.3-0.5-0.4c-2.1-1.9-4.9-3-8-3H193.8c-2.6,0-4.7-2.1-4.7-4.7V368.3
			c0-2.6,2.1-4.7,4.7-4.7h240.4c2.6,0,4.7,2.1,4.7,4.7V508.9z"/>
	</g>
</g>
<g>
	<g>
		<path class="st0" d="M314,426.5c-6.7,0-12.1,5.4-12.1,12.1s5.4,12.1,12.1,12.1c6.7,0,12.1-5.4,12.1-12.1S320.6,426.5,314,426.5z"
			/>
	</g>
</g>
<g>
	<g>
		<path class="st0" d="M261.5,271.6H41.6c-6.7,0-12.1,5.4-12.1,12.1s5.4,12.1,12.1,12.1h219.8c6.7,0,12.1-5.4,12.1-12.1
			S268.1,271.6,261.5,271.6z"/>
	</g>
</g>
<g>
	<g>
		<path class="st0" d="M125.1,351.5H41.7c-6.7,0-12.1,5.4-12.1,12.1s5.4,12.1,12.1,12.1h83.4c6.7,0,12.1-5.4,12.1-12.1
			S131.7,351.5,125.1,351.5z"/>
	</g>
</g>
<g>
	<g>
		<path class="st0" d="M257.8,426.5c-6.7,0-12.1,5.4-12.1,12.1s5.4,12.1,12.1,12.1c6.7,0,12.1-5.4,12.1-12.1
			S264.5,426.5,257.8,426.5z"/>
	</g>
</g>
<g>
	<g>
		<path class="st0" d="M370.1,426.5c-6.7,0-12.1,5.4-12.1,12.1s5.4,12.1,12.1,12.1c6.7,0,12.1-5.4,12.1-12.1
			S376.7,426.5,370.1,426.5z"/>
	</g>
</g>
</svg>
