<?xml version="1.0" encoding="utf-8"?>
<!-- Generator: Adobe Illustrator 19.0.0, SVG Export Plug-In . SVG Version: 6.00 Build 0)  -->
<svg version="1.1" id="Capa_1" xmlns="http://www.w3.org/2000/svg" xmlns:xlink="http://www.w3.org/1999/xlink" x="0px" y="0px"
	 viewBox="-49 141 512 512" style="enable-background:new -49 141 512 512;" xml:space="preserve">
<style type="text/css">
	.st0{fill:#F3F3F3;}
</style>
<g>
	<g>
		<g>
			<path class="st0" d="M281.7,525h-21.3c-5.9,0-10.7,4.8-10.7,10.7v74.7h-256V183.7h256v74.7c0,5.9,4.8,10.7,10.7,10.7h21.3
				c5.9,0,10.7-4.8,10.7-10.7v-74.7c0-23.6-19.1-42.7-42.7-42.7h-256c-23.6,0-42.7,19.1-42.7,42.7v426.7c0,23.6,19.1,42.7,42.7,42.7
				h256c23.6,0,42.7-19.1,42.7-42.7v-74.7C292.3,529.8,287.6,525,281.7,525z"/>
			<path class="st0" d="M459.5,389.1l-128-117.3c-3.1-2.8-7.7-3.6-11.5-1.9c-3.9,1.7-6.4,5.5-6.4,9.8V301c0,3,1.3,5.9,3.5,7.9
				l74.2,66.7H89.7c-5.9,0-10.7,4.8-10.7,10.7v21.3c0,5.9,4.8,10.7,10.7,10.7h301.7l-74.2,66.7c-2.3,2-3.5,4.9-3.5,7.9v21.3
				c0,4.2,2.5,8.1,6.4,9.8c1.4,0.6,2.8,0.9,4.3,0.9c2.6,0,5.2-1,7.2-2.8l128-117.3c2.2-2,3.5-4.9,3.5-7.9S461.8,391.2,459.5,389.1z"
				/>
		</g>
	</g>
</g>
</svg>
