<?xml version="1.0" encoding="utf-8"?>
<!-- Generator: Adobe Illustrator 19.0.0, SVG Export Plug-In . SVG Version: 6.00 Build 0)  -->
<svg version="1.1" id="Layer_1" xmlns="http://www.w3.org/2000/svg" xmlns:xlink="http://www.w3.org/1999/xlink" x="0px" y="0px"
	 viewBox="-42.1 150 504.5 443.3" style="enable-background:new -42.1 150 504.5 443.3;" xml:space="preserve">
<style type="text/css">
	.st0{fill:#EFEFEF;}
</style>
<g>
	<g>
		<path class="st0" d="M143.9,433.1c-1.8,4.6-0.3,9.9,3.6,12.9l3.2,2.5c7.2-10.4,15.7-21.8,26.1-34.4c0.8-0.9,1.5-1.4,2.3-2.2
			l-20.4-16C150.1,416,145.3,429.4,143.9,433.1z"/>
		<path class="st0" d="M250.3,471.6c-10.5,12.6-20,23.1-28.9,32.2l4.3,3.4c4,3.1,9.6,3.4,13.9,0.6c5.8-3.7,14.8-9.1,33.8-22.1
			L252.1,469C251.4,469.8,251.1,470.7,250.3,471.6z"/>
		<path class="st0" d="M237.6,413.9c-9.3-7.3-32.4,2.6-42.3,14.6c-33.5,40.3-47.5,67.9-53.3,83.9c-1.7,4.6-0.2,9.7,3.7,12.7
			c3.9,3,9.4,3.4,13.7,0.8c14.5-8.8,38.9-28,72.7-68.7C242.9,444,246.5,420.9,237.6,413.9L237.6,413.9z"/>
		<path class="st0" d="M111.2,337.9l-29.5,35.7c-3.3,4-3.5,9.7-0.3,13.9c3.1,4.1,8.8,5.8,13.8,3.9c17.4-6.5,32.9-10.1,43.8-8.7
			c12.2-27.7,25.8-53.4,40.5-77C168.8,300.7,136.4,307.6,111.2,337.9z"/>
		<path class="st0" d="M299.2,556.8c4.8,1.7,10.2,0.3,13.3-3.5l29.5-35.7c22.8-27.7,23.8-60.3,16.9-69.9c-23,21-46.6,39.1-68.9,54.5
			c2.6,8.8,2.5,17.6,1.5,43.4C291.4,550.7,294.5,555.1,299.2,556.8z"/>
		<path class="st0" d="M303.2,280c-12.2,14.7-9.8,36.4,5.4,48.3s37.5,9.5,49.7-5.2c12.2-14.7,9.8-36.4-5.4-48.3
			S315.3,265.2,303.2,280z"/>
		<path class="st0" d="M458.3,159.4c-1-5.6-6.1-9.6-11.9-9.3c-29,0.9-57.3,7.4-84.5,18.7c4.2,18.5,16.5,37.8,35.3,52.6
			c19.1,15,41.7,22.4,61.5,22.1C463.4,216.8,464,188.9,458.3,159.4z"/>
		<path class="st0" d="M382.5,239c-21.6-16.9-36-38.4-42.3-60.1c-67.3,35.4-127.8,103.7-171.4,195.3l29.3,23
			c17.3-9,39-13.2,54.4-1.2c15.4,12.1,15.8,33.6,10.4,51.9l30.3,23.7c63.7-47.1,136-118.2,160.4-205.4
			C429.8,265.3,404.4,256.3,382.5,239z M376.6,337.4c-20.3,24.6-57.5,28.5-82.9,8.7c-25.3-19.8-29.3-55.9-9-80.5
			c20.3-24.6,57.5-28.5,82.9-8.7C393,276.7,397,312.9,376.6,337.4z"/>
	</g>
	<path class="st0" d="M113.1,484.3c-13.2,18.2-37,46.1-74.9,69.6c-30.8,19.1-60,28.5-80.3,33.3c39.9,6.7,73.4,6.8,97,5.5
		c39.4-2.1,69.2-11.8,107.6-24.7c18.5-6.2,27.9-11.7,36-28.6c0.2-0.3-0.1-0.6-0.4-0.4c-23.1,18.9-49.5,13-67.4-4.3
		C116.8,521.4,110.9,503.4,113.1,484.3z"/>
</g>
</svg>
