<?xml version="1.0" encoding="utf-8"?>
<!-- Generator: Adobe Illustrator 19.0.0, SVG Export Plug-In . SVG Version: 6.00 Build 0)  -->
<svg version="1.1" id="Capa_1" xmlns="http://www.w3.org/2000/svg" xmlns:xlink="http://www.w3.org/1999/xlink" x="0px" y="0px"
	 viewBox="-106 198.6 397.4 397.4" style="enable-background:new -106 198.6 397.4 397.4;" xml:space="preserve">
<style type="text/css">
	.st0{fill:#F3F3F3;}
</style>
<g>
	<g>
		<path class="st0" d="M67.6,296.4l-21.9-22.1c-2.6-3.1-7.2-3.5-10.3-0.9s-3.5,7.2-0.9,10.3c0.3,0.3,0.5,0.6,0.8,0.9l21.9,22.1
			c3.1,2.6,7.6,2.3,10.3-0.8C69.8,303.1,69.9,299.1,67.6,296.4z"/>
	</g>
</g>
<g>
	<g>
		<path class="st0" d="M253.1,275.4c-2.6-3.1-7.2-3.5-10.3-0.9c-0.3,0.3-0.6,0.5-0.9,0.8l-22.1,21.9c-3.1,2.6-3.5,7.2-0.9,10.3
			c2.6,3.1,7.2,3.5,10.3,0.9c0.3-0.3,0.6-0.5,0.9-0.8l22.1-21.9C255.3,283.1,255.7,278.5,253.1,275.4z"/>
	</g>
</g>
<g>
	<g>
		<path class="st0" d="M121.3,270.8c0-0.2-0.1-0.4-0.2-0.6l-8-30.1c-0.8-3.9-4.7-6.4-8.6-5.6c-3.9,0.8-6.4,4.7-5.6,8.6
			c0,0.2,0.1,0.4,0.2,0.6l8,30.1c0.8,3.9,4.7,6.4,8.6,5.6S122.1,274.7,121.3,270.8z"/>
	</g>
</g>
<g>
	<g>
		<path class="st0" d="M220.7,425.7c-1.4-1.4-2.8-2.7-4.2-4l1.2-2.2c1.5-2.7,2.8-5.6,4-8.4c17-42.6-3.6-90.9-46.2-107.9
			c-0.1,0-0.2-0.1-0.2-0.1c-38.5-15.3-82.4,0-102.9,36c-50.1-14-102.2,15.3-116.2,65.4c-2.3,8.3-3.5,17-3.5,25.6c0,1.2,0,2.5,0,3.8
			c-34.8,2.5-61,32.7-58.6,67.5c2.3,32.9,29.6,58.5,62.6,58.7h0.2h208c43.5,0.1,78.8-35.1,78.9-78.6
			C243.9,460.6,235.6,440.5,220.7,425.7z M119.3,316.6c16.2-6.5,34.3-6.5,50.5,0c35.2,14,52.3,53.9,38.4,89.1
			c-1,2.4-2.2,4.8-3.4,7.1v0.6c-20.1-11.7-44.3-13.9-66.2-6.1c-4-16.1-12.3-30.9-23.8-42.8c8.1-15,26.1-21.6,42-15.4
			c3.8,1.2,7.9-0.8,9.1-4.6c1.1-3.5-0.5-7.3-3.8-8.8c-21.6-8.6-46.2-0.6-58.6,19.1c-5.5-4.1-11.3-7.6-17.6-10.4
			C93.7,331.8,105.5,322,119.3,316.6z M180.1,543.9c-5,1.2-10,1.8-15.1,1.8H-43c-26.9,0-48.7-21.8-48.6-48.7
			c0-12.9,5.1-25.2,14.2-34.4l-0.1,0c9.1-9.1,21.5-14.3,34.4-14.2h1.8h1.6c4,0.3,7.4-2.7,7.7-6.7c0-0.6,0-1.3-0.1-1.9
			c-0.2-1.4-0.3-2.9-0.4-4.5c0-1.5,0-3.2,0-5.1c0.6-44,36.8-79.3,80.8-78.7c38.7,0.5,71.4,28.8,77.7,67c0.6,4,4.2,6.7,8.2,6.1
			c0.8-0.1,1.5-0.3,2.2-0.7c4.4-2.2,9.1-3.9,13.9-5c34.5-8.3,69.2,13.1,77.5,47.6C236,501,214.7,535.6,180.1,543.9z"/>
	</g>
</g>
<g>
	<g>
		<path class="st0" d="M291.1,344c-1.1-3.6-4.8-5.7-8.4-4.9l-30.1,8c-3.9,1-6.2,4.9-5.2,8.8c1,3.9,4.9,6.2,8.8,5.2c0,0,0,0,0,0
			l30.1-8C290.1,351.9,292.3,347.8,291.1,344z"/>
	</g>
</g>
<g>
	<g>
		<path class="st0" d="M286,414.8l-30-8.2c-3.9-1.1-7.9,1.1-9,5s1.1,7.9,5,9l30,8.2c3.9,1.1,7.9-1.1,9-5
			C292.1,419.9,289.8,415.9,286,414.8z"/>
	</g>
</g>
<g>
	<g>
		<path class="st0" d="M183.8,235.3c-3.9-1.1-7.9,1.1-9,5l-8.2,30c-1.1,3.8,1,7.9,4.9,9c0.1,0,0.2,0,0.3,0.1c3.8,1.1,7.9-1.1,9-4.9
			c0-0.1,0-0.1,0-0.2l8-30C189.8,240.4,187.6,236.4,183.8,235.3z"/>
	</g>
</g>
</svg>
